<svg id="chart" class="recharts-surface" width="43" height="43" viewBox="0 0 43 43" version="1.1"><defs><clipPath id="chart-clip"><rect x="6" y="5" height="33" width="32"></rect></clipPath></defs><g class="recharts-layer recharts-cartesian-axis recharts-yAxis yAxis"><line type="number" width="1" orientation="left" height="33" x="5" y="5" class="recharts-cartesian-axis-line" stroke="#666" fill="none" x1="6" y1="5" x2="6" y2="38"></line><g class="recharts-cartesian-axis-ticks"></g></g><g class="recharts-layer recharts-bar"><g class="recharts-layer recharts-bar-rectangles"><g class="recharts-layer"><g class="recharts-layer recharts-bar-rectangle"><path fill="#377eb8" name="1976" width="4" height="10.727392499999997" x="5" y="27.272607500000003" radius="0" class="recharts-rectangle" d="M 5,27.272607500000003 h 4 v 10.727392499999997 h -4 Z"></path></g><g class="recharts-layer recharts-bar-rectangle"><path fill="#377eb8" name="1980" width="4" height="10.122585" x="7.90909090909091" y="27.877415" radius="0" class="recharts-rectangle" d="M 7.90909090909091,27.877415 h 4 v 10.122585 h -4 Z"></path></g><g class="recharts-layer recharts-bar-rectangle"><path fill="#377eb8" name="1984" width="4" height="10.26856875" x="10.818181818181818" y="27.73143125" radius="0" class="recharts-rectangle" d="M 10.818181818181818,27.73143125 h 4 v 10.26856875 h -4 Z"></path></g><g class="recharts-layer recharts-bar-rectangle"><path fill="#377eb8" name="1988" width="4" height="11.620063124999998" x="13.727272727272727" y="26.379936875000002" radius="0" class="recharts-rectangle" d="M 13.727272727272727,26.379936875000002 h 4 v 11.620063124999998 h -4 Z"></path></g><g class="recharts-layer recharts-bar-rectangle"><path fill="#377eb8" name="1992" width="4" height="10.735993125" x="16.636363636363637" y="27.264006875" radius="0" class="recharts-rectangle" d="M 16.636363636363637,27.264006875 h 4 v 10.735993125 h -4 Z"></path></g><g class="recharts-layer recharts-bar-rectangle"><path fill="#377eb8" name="1996" width="4" height="11.054700937499998" x="19.545454545454547" y="26.945299062500002" radius="0" class="recharts-rectangle" d="M 19.545454545454547,26.945299062500002 h 4 v 11.054700937499998 h -4 Z"></path></g><g class="recharts-layer recharts-bar-rectangle"><path fill="#377eb8" name="2000" width="4" height="12.8183034375" x="22.454545454545453" y="25.1816965625" radius="0" class="recharts-rectangle" d="M 22.454545454545453,25.1816965625 h 4 v 12.8183034375 h -4 Z"></path></g><g class="recharts-layer recharts-bar-rectangle"><path fill="#377eb8" name="2004" width="4" height="15.360510000000001" x="25.363636363636363" y="22.63949" radius="0" class="recharts-rectangle" d="M 25.363636363636363,22.63949 h 4 v 15.360510000000001 h -4 Z"></path></g><g class="recharts-layer recharts-bar-rectangle"><path fill="#377eb8" name="2008" width="4" height="17.2962384375" x="28.272727272727273" y="20.7037615625" radius="0" class="recharts-rectangle" d="M 28.272727272727273,20.7037615625 h 4 v 17.2962384375 h -4 Z"></path></g><g class="recharts-layer recharts-bar-rectangle"><path fill="#377eb8" name="2012" width="4" height="16.716407812499998" x="31.181818181818187" y="21.283592187500002" radius="0" class="recharts-rectangle" d="M 31.181818181818187,21.283592187500002 h 4 v 16.716407812499998 h -4 Z"></path></g><g class="recharts-layer recharts-bar-rectangle"><path fill="#377eb8" name="2016" width="4" height="14.257402500000001" x="34.09090909090909" y="23.7425975" radius="0" class="recharts-rectangle" d="M 34.09090909090909,23.7425975 h 4 v 14.257402500000001 h -4 Z"></path></g></g></g></g><g class="recharts-layer recharts-bar"><g class="recharts-layer recharts-bar-rectangles"><g class="recharts-layer"><g class="recharts-layer recharts-bar-rectangle"><path fill="#e41a1c" name="1976" width="4" height="10.363928437500004" x="5" y="16.9086790625" radius="0" class="recharts-rectangle" d="M 5,16.9086790625 h 4 v 10.363928437500004 h -4 Z"></path></g><g class="recharts-layer recharts-bar-rectangle"><path fill="#e41a1c" name="1980" width="4" height="11.2287140625" x="7.90909090909091" y="16.6487009375" radius="0" class="recharts-rectangle" d="M 7.90909090909091,16.6487009375 h 4 v 11.2287140625 h -4 Z"></path></g><g class="recharts-layer recharts-bar-rectangle"><path fill="#e41a1c" name="1984" width="4" height="12.3603975" x="10.818181818181818" y="15.37103375" radius="0" class="recharts-rectangle" d="M 10.818181818181818,15.37103375 h 4 v 12.3603975 h -4 Z"></path></g><g class="recharts-layer recharts-bar-rectangle"><path fill="#e41a1c" name="1988" width="4" height="10.802333437500003" x="13.727272727272727" y="15.577603437499999" radius="0" class="recharts-rectangle" d="M 13.727272727272727,15.577603437499999 h 4 v 10.802333437500003 h -4 Z"></path></g><g class="recharts-layer recharts-bar-rectangle"><path fill="#e41a1c" name="1992" width="4" height="9.5994421875" x="16.636363636363637" y="17.6645646875" radius="0" class="recharts-rectangle" d="M 16.636363636363637,17.6645646875 h 4 v 9.5994421875 h -4 Z"></path></g><g class="recharts-layer recharts-bar-rectangle"><path fill="#e41a1c" name="1996" width="4" height="8.714361562500002" x="19.545454545454547" y="18.2309375" radius="0" class="recharts-rectangle" d="M 19.545454545454547,18.2309375 h 4 v 8.714361562500002 h -4 Z"></path></g><g class="recharts-layer recharts-bar-rectangle"><path fill="#e41a1c" name="2000" width="4" height="12.7594396875" x="22.454545454545453" y="12.422256875" radius="0" class="recharts-rectangle" d="M 22.454545454545453,12.422256875 h 4 v 12.7594396875 h -4 Z"></path></g><g class="recharts-layer recharts-bar-rectangle"><path fill="#e41a1c" name="2004" width="4" height="15.243112499999999" x="25.363636363636363" y="7.3963775" radius="0" class="recharts-rectangle" d="M 25.363636363636363,7.3963775 h 4 v 15.243112499999999 h -4 Z"></path></g><g class="recharts-layer recharts-bar-rectangle"><path fill="#e41a1c" name="2008" width="4" height="13.018427812499997" x="28.272727272727273" y="7.685333750000001" radius="0" class="recharts-rectangle" d="M 28.272727272727273,7.685333750000001 h 4 v 13.018427812499997 h -4 Z"></path></g><g class="recharts-layer recharts-bar-rectangle"><path fill="#e41a1c" name="2012" width="4" height="14.550586875000002" x="31.181818181818187" y="6.7330053125" radius="0" class="recharts-rectangle" d="M 31.181818181818187,6.7330053125 h 4 v 14.550586875000002 h -4 Z"></path></g><g class="recharts-layer recharts-bar-rectangle"><path fill="#e41a1c" name="2016" width="4" height="14.491991249999998" x="34.09090909090909" y="9.25060625" radius="0" class="recharts-rectangle" d="M 34.09090909090909,9.25060625 h 4 v 14.491991249999998 h -4 Z"></path></g></g></g></g><g class="recharts-layer recharts-bar"><g class="recharts-layer recharts-bar-rectangles"><g class="recharts-layer"><g class="recharts-layer recharts-bar-rectangle"><path fill="#e0cf1a" name="1976" width="4" height="0.5787065624999954" x="5" y="16.329972500000004" radius="0" class="recharts-rectangle" d="M 5,16.329972500000004 h 4 v 0.5787065624999954 h -4 Z"></path></g><g class="recharts-layer recharts-bar-rectangle"><path fill="#e0cf1a" name="1980" width="4" height="2.091292499999998" x="7.90909090909091" y="14.557408437500001" radius="0" class="recharts-rectangle" d="M 7.90909090909091,14.557408437500001 h 4 v 2.091292499999998 h -4 Z"></path></g><g class="recharts-layer recharts-bar-rectangle"><path fill="#e0cf1a" name="1984" width="4" height="0.17907656250000237" x="10.818181818181818" y="15.191957187499998" radius="0" class="recharts-rectangle" d="M 10.818181818181818,15.191957187499998 h 4 v 0.17907656250000237 h -4 Z"></path></g><g class="recharts-layer recharts-bar-rectangle"><path fill="#e0cf1a" name="1988" width="4" height="0.17856093750000035" x="13.727272727272727" y="15.399042499999998" radius="0" class="recharts-rectangle" d="M 13.727272727272727,15.399042499999998 h 4 v 0.17856093750000035 h -4 Z"></path></g><g class="recharts-layer recharts-bar-rectangle"><path fill="#e0cf1a" name="1992" width="4" height="5.766162187499999" x="16.636363636363637" y="11.898402500000001" radius="0" class="recharts-rectangle" d="M 16.636363636363637,11.898402500000001 h 4 v 5.766162187499999 h -4 Z"></path></g><g class="recharts-layer recharts-bar-rectangle"><path fill="#e0cf1a" name="1996" width="4" height="2.8789303125000014" x="19.545454545454547" y="15.352007187499998" radius="0" class="recharts-rectangle" d="M 19.545454545454547,15.352007187499998 h 4 v 2.8789303125000014 h -4 Z"></path></g><g class="recharts-layer recharts-bar-rectangle"><path fill="#e0cf1a" name="2000" width="4" height="1.2203915625000032" x="22.454545454545453" y="11.201865312499997" radius="0" class="recharts-rectangle" d="M 22.454545454545453,11.201865312499997 h 4 v 1.2203915625000032 h -4 Z"></path></g><g class="recharts-layer recharts-bar-rectangle"><path fill="#e0cf1a" name="2004" width="4" height="0.30301218750000025" x="25.363636363636363" y="7.0933653125" radius="0" class="recharts-rectangle" d="M 25.363636363636363,7.0933653125 h 4 v 0.30301218750000025 h -4 Z"></path></g><g class="recharts-layer recharts-bar-rectangle"><path fill="#e0cf1a" name="2008" width="4" height="0.45182156250000105" x="28.272727272727273" y="7.2335121875" radius="0" class="recharts-rectangle" d="M 28.272727272727273,7.2335121875 h 4 v 0.45182156250000105 h -4 Z"></path></g><g class="recharts-layer recharts-bar-rectangle"><path fill="#e0cf1a" name="2012" width="4" height="0.4071684374999993" x="31.181818181818187" y="6.325836875" radius="0" class="recharts-rectangle" d="M 31.181818181818187,6.325836875 h 4 v 0.4071684374999993 h -4 Z"></path></g><g class="recharts-layer recharts-bar-rectangle"><path fill="#e0cf1a" name="2016" width="4" height="1.9421531250000026" x="34.09090909090909" y="7.308453124999998" radius="0" class="recharts-rectangle" d="M 34.09090909090909,7.308453124999998 h 4 v 1.9421531250000026 h -4 Z"></path></g></g></g></g></svg>